<svg t="1710000000000" viewBox="0 0 1024 1024" version="1.1" xmlns="http://www.w3.org/2000/svg">
  <path d="M899.2 755.2H124.8c-32 0-57.6-25.6-57.6-57.6V326.4c0-32 25.6-57.6 57.6-57.6h774.4c32 0 57.6 25.6 57.6 57.6v371.2c0 32-25.6 57.6-57.6 57.6zM124.8 326.4v371.2h774.4V326.4H124.8z" fill="#FF6B6B"/>
  <path d="M512 512m-57.6 0a57.6 57.6 0 1 0 115.2 0 57.6 57.6 0 1 0-115.2 0Z" fill="#FF6B6B"/>
  <path d="M281.6 512m-57.6 0a57.6 57.6 0 1 0 115.2 0 57.6 57.6 0 1 0-115.2 0Z" fill="#FF6B6B"/>
  <path d="M742.4 512m-57.6 0a57.6 57.6 0 1 0 115.2 0 57.6 57.6 0 1 0-115.2 0Z" fill="#FF6B6B"/>
</svg> 