<?xml version="1.0" standalone="no"?><!DOCTYPE svg PUBLIC "-//W3C//DTD SVG 1.1//EN" "http://www.w3.org/Graphics/SVG/1.1/DTD/svg11.dtd"><svg t="1740122831898" class="icon" viewBox="0 0 1230 1024" version="1.1" xmlns="http://www.w3.org/2000/svg" p-id="8379" xmlns:xlink="http://www.w3.org/1999/xlink" width="240.234375" height="200"><path d="M844.826769 0.411829h137.949111A80.608735 80.608735 0 0 1 1063.384615 80.993109v871.705499H764.231761V80.993109A80.608735 80.608735 0 0 1 844.826769 0.411829z" fill="#A7CA84" p-id="8380"></path><path d="M247.578089 0h137.949112a80.608735 80.608735 0 0 1 80.608735 80.608735v871.705499H166.969354v-871.705499A80.608735 80.608735 0 0 1 247.578089 0z" fill="#B4D4DE" p-id="8381"></path><path d="M547.733062 0.205915h137.990294a80.608735 80.608735 0 0 1 80.608735 80.608735v871.705499H467.165509v-871.705499A80.608735 80.608735 0 0 1 547.733062 0.205915z" fill="#D87D61" p-id="8382"></path><path d="M269.528595 230.693085m42.830254 0l8.387592 0q42.830254 0 42.830254 42.830255l0 405.212644q0 42.830254-42.830254 42.830255l-8.387592 0q-42.830254 0-42.830254-42.830255l0-405.212644q0-42.830254 42.830254-42.830255Z" fill="#5A6F77" p-id="8383"></path><path d="M569.72475 230.899m42.830254 0l8.387592 0q42.830254 0 42.830254 42.830254l0 405.212645q0 42.830254-42.830254 42.830254l-8.387592 0q-42.830254 0-42.830254-42.830254l0-405.212645q0-42.830254 42.830254-42.830254Z" fill="#5A6F77" p-id="8384"></path><path d="M166.969354 803.094726h896.415261v69.516798h-896.415261zM166.969354 95.21495h896.415261V164.731748h-896.415261z" fill="#151616" opacity=".4" p-id="8385"></path><path d="M866.791002 231.104915m42.830254 0l8.387592 0q42.830254 0 42.830254 42.830254l0 405.212644q0 42.830254-42.830254 42.830255l-8.387592 0q-42.830254 0-42.830254-42.830255l0-405.212644q0-42.830254 42.830254-42.830254Z" fill="#647351" p-id="8386"></path><path d="M166.969354 630.400944v316.326139l5.065501 3.78883h294.101081V230.693085L166.969354 630.400944z" fill="#0E313F" opacity=".4" p-id="8387"></path><path d="M465.600558 630.400944v316.326139l5.065501 3.78883H764.767139V230.693085L465.600558 630.400944z" fill="#601D0D" opacity=".4" p-id="8388"></path><path d="M764.231761 630.400944v316.326139l5.051774 3.78883h294.10108V230.693085L764.231761 630.400944z" fill="#2C4412" opacity=".4" p-id="8389"></path><path d="M0 948.154758h1230.353969v75.845242H0z" fill="#93684E" p-id="8390"></path></svg>