<?xml version="1.0" standalone="no"?><!DOCTYPE svg PUBLIC "-//W3C//DTD SVG 1.1//EN" "http://www.w3.org/Graphics/SVG/1.1/DTD/svg11.dtd"><svg t="1740154784469" class="icon" viewBox="0 0 1024 1024" version="1.1" xmlns="http://www.w3.org/2000/svg" p-id="2763" xmlns:xlink="http://www.w3.org/1999/xlink" width="200" height="200"><path d="M988.672 593.728c-14.336-102.784-145.728-107.84-145.728-107.84 0-32.896-43.776-52.16-43.776-52.16h-628.48c-40.448 0-46.4 56.32-46.4 56.32 8.448 316.8 199.616 421.312 199.616 421.312h329.408c47.168-34.496 112-134.784 112-134.784 10.24 3.392 80.128-0.896 107.84-6.784 27.84-5.888 129.792-73.344 115.52-176z m-637.76 262.912c-160-116.288-144-361.472-144-361.472h88.448c-48.832 139.072 48 314.24 61.44 338.688 13.568 24.448-5.888 22.784-5.888 22.784z m514.688-144.128c-41.28 24.512-71.68 8.448-71.68 8.448 43.008-59.84 46.336-175.232 46.336-175.232 7.552 2.56 13.568-28.672 67.456 26.112 53.952 54.72-0.768 116.224-42.112 140.672zM99.968 1004.8h742.656c36.48 0 65.984-31.168 65.984-69.824H33.984c0 38.656 29.44 69.824 65.92 69.824zM335.68 91.648S204.288 171.776 286.72 246.656c82.56 75.008 75.008 102.784 26.944 168.576 0 0 90.112-45.504 78.336-114.624-11.84-69.12-98.56-103.68-80.064-151.616 18.624-48 23.68-57.344 23.68-57.344z m289.92-42.048S494.08 129.728 576.704 204.608c82.432 75.008 74.88 102.784 26.88 168.576 0 0 90.24-45.44 78.4-114.624-11.776-69.12-98.56-103.68-80.128-151.552 18.56-48.192 23.68-57.408 23.68-57.408zM488.96 19.2S407.296 25.984 392.128 105.152c-15.168 79.232 36.224 108.736 75.776 148.352 39.616 39.552 22.784 113.664-21.888 166.016 0 0 80.064-27.904 98.56-104.512 18.56-76.736-19.072-103.68-58.048-148.224-39.04-44.736-35.392-125.632 2.56-147.584z" fill="#F7BA2A" p-id="2764"></path></svg>