<svg viewBox="0 0 1024 1024" version="1.1" xmlns="http://www.w3.org/2000/svg">
  <path d="M512 32C246.4 32 32 246.4 32 512s214.4 480 480 480 480-214.4 480-480S777.6 32 512 32z m201.6 681.6c-12.8 12.8-32 12.8-44.8 0L512 556.8l-156.8 156.8c-12.8 12.8-32 12.8-44.8 0-12.8-12.8-12.8-32 0-44.8L467.2 512 310.4 355.2c-12.8-12.8-12.8-32 0-44.8 12.8-12.8 32-12.8 44.8 0L512 467.2l156.8-156.8c12.8-12.8 32-12.8 44.8 0 12.8 12.8 12.8 32 0 44.8L556.8 512l156.8 156.8c12.8 12.8 12.8 32 0 44.8z" fill="#FF6B6B"/>
</svg> 