<svg viewBox="0 0 1024 1024" version="1.1" xmlns="http://www.w3.org/2000/svg">
  <path d="M512 938.666667c-234.752 0-426.666667-191.914667-426.666667-426.666667s191.914667-426.666667 426.666667-426.666667 426.666667 191.914667 426.666667 426.666667-191.914667 426.666667-426.666667 426.666667z m0-64c200.298667 0 362.666667-162.368 362.666667-362.666667s-162.368-362.666667-362.666667-362.666667-362.666667 162.368-362.666667 362.666667 162.368 362.666667 362.666667 362.666667z" fill="#666666"/>
  <path d="M512 448c-35.346667 0-64-28.653333-64-64s28.653333-64 64-64 64 28.653333 64 64-28.653333 64-64 64z m-32 352V544c0-17.066667 14.933333-32 32-32s32 14.933333 32 32v256c0 17.066667-14.933333 32-32 32s-32-14.933333-32-32z" fill="#666666"/>
</svg> 