<?xml version="1.0" standalone="no"?><!DOCTYPE svg PUBLIC "-//W3C//DTD SVG 1.1//EN" "http://www.w3.org/Graphics/SVG/1.1/DTD/svg11.dtd"><svg t="1740122756466" class="icon" viewBox="0 0 1024 1024" version="1.1" xmlns="http://www.w3.org/2000/svg" p-id="3371" xmlns:xlink="http://www.w3.org/1999/xlink" width="200" height="200"><path d="M513.4592 977.2544c-256.5376 0-465.2544-208.7168-465.2544-465.2544S256.9216 46.7456 513.4592 46.7456 978.7136 255.4624 978.7136 512s-208.7168 465.2544-465.2544 465.2544z m0-894.6688c-236.7744 0-429.4144 192.64-429.4144 429.4144s192.64 429.4144 429.4144 429.4144S942.8736 748.7744 942.8736 512 750.2336 82.5856 513.4592 82.5856z" fill="#474E54" p-id="3372"></path><path d="M500.096 930.1504c-2.176 0-4.4032-0.4096-6.5792-1.2544a17.90208 17.90208 0 0 1-10.0864-23.2448l70.0928-177.6896a17.91232 17.91232 0 0 1 23.2448-10.0864 17.90208 17.90208 0 0 1 10.0864 23.2448l-70.0928 177.6896c-2.7648 7.04-9.5232 11.3408-16.6656 11.3408z" fill="#474E54" p-id="3373"></path><path d="M521.7024 561.8176s-110.1568 48.8704-123.5968 60.928c-13.44 12.0576-1.4592 34.7904 33.4336 56.4736 34.8928 21.6832 76.5696 68.8384 86.6816 94.6176 10.112 25.7792 27.8272 57.3184 55.1424 56.2688 27.3408-1.0496 25.9328-29.7728 40.1664-44.8512 14.2336-15.0784 35.2512-33.4336 96.64-31.1296 61.3632 2.304 70.4512-20.5568 68.3776-38.6048-2.0736-18.048 15.0784-45.312-5.0432-59.008-20.1472-13.7216-56.576-16.1024-67.456-54.5024-10.88-38.4512-86.2976-86.1952-184.3456-40.192z" fill="#FFDD79" p-id="3374"></path><path d="M572.0576 848.0256c-20.5056 0-48.7168-12.16-70.528-67.6608-8.3712-21.3248-47.4624-66.048-79.4624-85.9392-20.3264-12.6464-45.0048-32.7424-47.1296-56.7552-0.9472-10.88 3.0208-20.9152 11.1872-28.2624 14.4128-12.928 101.4784-52.0704 128.128-63.8976 71.552-33.536 125.7728-18.688 151.7312-6.8608 29.312 13.3632 50.7392 35.2 57.2928 58.4192 4.9664 17.5104 18.3296 23.9616 39.7568 32.512 8.6016 3.4304 17.4848 6.9888 24.96 12.0576 23.7824 16.2048 15.8464 42.8288 11.5712 57.1648-1.4848 4.992-3.5328 11.8528-3.2 14.6432 1.6896 14.7968-2.304 27.9296-11.6224 37.9648-14.08 15.2064-38.7072 21.9136-75.2384 20.5824-56.7552-2.1248-72.5248 14.5152-82.9184 25.5488-2.816 2.9952-5.1712 8.2432-7.6544 13.824-5.9136 13.2864-15.8208 35.5328-44.8512 36.6336-0.6912 0.0256-1.3568 0.0256-2.0224 0.0256z m-161.2032-212.5312c1.1776 3.7376 7.7824 14.592 30.1312 28.4928 36.2752 22.5536 81.92 72.7296 93.9008 103.2704 11.392 29.0048 25.1648 45.4656 37.7856 44.9024 5.632-0.2048 7.2704-1.4592 13.4912-15.4112 3.4304-7.68 7.3216-16.4096 14.336-23.8336 19.3536-20.5056 46.1312-39.168 110.336-36.736 34.176 1.28 44.672-5.9392 47.616-9.1136 0.896-0.9728 3.0208-3.2768 2.304-9.5232-1.152-10.0864 1.8432-20.1216 4.48-28.9792 1.4848-4.9664 4.2496-14.208 3.3024-16.7424 0 0.0256-0.1536-0.1536-0.6912-0.5376-4.224-2.8672-10.9312-5.5552-18.0736-8.3968-21.4528-8.5504-50.816-20.2752-60.9536-56.0384-2.9696-10.496-15.7952-25.5744-37.6832-35.584-20.3264-9.2672-63.2064-20.736-121.8048 6.7584-0.1024 0.0512-0.2304 0.1024-0.3584 0.1536-49.3824 21.9392-107.3152 49.4848-118.1184 57.3184z m110.848-73.6768z" fill="#474E54" p-id="3375"></path><path d="M555.264 534.8608s141.312 66.3552 168.6528 66.9184c27.3664 0.5632 22.3744 17.4592 7.3472 42.3424-15.0272 24.8832-26.496 49.4848-26.496 49.4848s-141.1584-41.6512-145.024-38.3744c-3.8656 3.2768-60.032-49.8432-60.032-49.8432l55.552-70.528z" fill="#479933" p-id="3376"></path><path d="M704.8192 711.5264c-1.6896 0-3.3792-0.2304-5.0688-0.7424-57.7792-17.0496-122.8032-35.1232-137.6-37.5808-9.5232 1.28-18.7648-5.888-24.3712-10.24-5.4528-4.224-12.6208-10.2912-21.3248-18.0224-14.5664-12.928-28.416-26.0096-28.9792-26.5472a17.90208 17.90208 0 0 1-1.7664-24.0896l55.5008-70.528a17.9456 17.9456 0 0 1 21.7088-5.1456c66.2528 31.104 146.816 64.896 161.4336 65.2288 16.5376 0.3328 27.8272 5.8112 33.5872 16.256 9.1904 16.6912-0.9984 36.2496-11.264 53.248-14.3616 23.808-25.472 47.5648-25.6 47.7952a17.93024 17.93024 0 0 1-16.256 10.368z m-141.7472-74.3168c6.0672 0.4352 13.952 2.4064 25.3696 5.248 12.3392 3.0976 29.2352 7.6288 50.1504 13.4656 21.5552 6.0416 43.1104 12.2624 56.8064 16.2304 4.9408-9.728 12.1856-23.3984 20.5824-37.2992 4.3264-7.1936 6.7328-12.0064 8.0384-15.1552h-0.4352c-25.9328-0.5376-119.4496-42.4448-162.9952-62.592l-36.5312 46.4128c15.7184 14.4896 31.872 28.6208 39.0144 33.6896z m-14.7968 4.3008l-0.0768 0.0768c0.0256-0.0512 0.0512-0.0768 0.0768-0.0768z" fill="#474E54" p-id="3377"></path><path d="M598.144 368.0512c-0.128 2.0992 118.4768 120.9856 167.2704 107.136s50.048-5.504 50.048-5.504-38.3232 44.2368-26.752 62.2592c11.5712 18.048-62.6944 64.7168-67.584 81.408-4.8896 16.7168-0.6656 17.8688-0.6656 17.8688s-94.0032-89.472-167.8848-74.88c-73.8816 14.592-40.8064-133.8624-23.1168-159.7696 17.7152-25.856 68.6848-28.5184 68.6848-28.5184z" fill="#F48078" p-id="3378"></path><path d="M720.4608 649.1904c-1.5872 0-3.1744-0.2048-4.736-0.64a19.08736 19.08736 0 0 1-9.3184-5.888c-25.9328-24.0384-98.56-78.9248-150.3488-68.6848-23.2192 4.5824-42.5216-2.7392-54.3232-20.6592-29.0304-44.0064-2.176-144.6656 12.9536-166.8096 22.0672-32.2816 76.3904-36.0448 82.5344-36.352 5.12-0.2816 10.0608 1.6384 13.6448 5.2736 0.7936 0.7936 1.4848 1.6384 2.0992 2.56 5.1968 5.9136 33.8944 34.1504 65.8688 58.9312 57.7792 44.7488 78.1824 42.0608 81.6896 41.0624 43.0336-12.2112 56.064-9.3184 63.6928-4.4032 4.8896 3.1488 8.1408 8.064 8.96 13.4912a17.92 17.92 0 0 1-4.1728 14.3872c-12.9792 15.0272-24.6016 34.944-24.576 41.9072 7.04 12.0576 3.4048 26.4704-10.8032 42.8288-8.6016 9.9072-20.2752 20.1984-31.5648 30.1312-8.448 7.4496-21.0944 18.56-23.9872 23.04-0.6144 2.176-0.9472 3.7376-1.1264 4.8384 2.176 5.0176 1.9712 10.9312-0.8448 15.9232a18.07872 18.07872 0 0 1-15.6416 9.0624z m-151.168-112.3072c53.1968 0 109.1072 37.0944 139.8528 61.2352 5.6064-7.7824 15.104-16.3328 29.2096-28.7488 10.0096-8.8064 27.8528-24.5248 32.768-32.512-5.8624-14.1824-0.3584-31.488 8.0384-46.848-2.7136 0.6912-5.6576 1.4848-8.8576 2.4064-27.2896 7.7312-67.0976-9.856-121.7536-53.7856-18.8416-15.1296-34.7392-29.6704-44.7488-39.1936-5.504-5.2224-9.7792-9.3184-13.056-12.6976-16.5376 2.2528-38.7328 8.6272-46.464 19.968-4.48 6.5792-12.9792 31.104-17.28 60.1088-4.5312 30.5152-2.7904 55.4496 4.6592 66.7392 2.4576 3.712 6.016 7.4752 17.4848 5.2224 6.6048-1.28 13.3632-1.8944 20.1472-1.8944z m46.7456-167.808v0z m0-0.0256v0z m0-0.0256v0z m0-0.0512v0z m0.0256-1.1264c0 0.384 0 0.7424-0.0256 1.1264 0.0256-0.384 0.0256-0.768 0.0256-1.1264z m0-0.0256z" fill="#474E54" p-id="3379"></path><path d="M604.344496 522.299696a131.3536 94.2592 30.453 1 0 95.547044-162.511383 131.3536 94.2592 30.453 1 0-95.547044 162.511383Z" fill="#FFDD79" p-id="3380"></path><path d="M675.1232 558.6944c-27.7248 0-57.5232-7.8592-85.1968-24.1152-68.0192-39.9872-97.8432-115.8912-66.4832-169.216 31.36-53.3248 112.1792-64.1536 180.1984-24.192 68.0192 39.9872 97.8432 115.8912 66.4832 169.216-18.5856 31.6416-54.5792 48.3072-95.0016 48.3072z m-57.2928-206.1312c-27.648 0-51.5072 10.5472-63.488 30.9504-21.3248 36.2752 2.7904 90.1888 53.76 120.1664s109.7984 24.832 131.1488-11.4432c21.3248-36.2752-2.7904-90.1888-53.76-120.1664-22.3232-13.1072-46.1312-19.5072-67.6608-19.5072z m136.8576 148.7616z" fill="#474E54" p-id="3381"></path><path d="M550.7072 277.7856s201.5232 83.9168 233.1904 81.7664c31.6672-2.1504 27.648 17.8432 12.8512 48.1536-14.7968 30.2848-25.5232 59.8784-25.5232 59.8784s-167.3216-33.6128-171.4432-29.4144-74.4448-51.4048-74.4448-51.4048l25.3696-108.9792z" fill="#ABB636" p-id="3382"></path><path d="M771.2512 485.504c-1.1776 0-2.3552-0.1024-3.5328-0.3584-69.12-13.8752-146.5344-28.1344-163.4816-29.3632-9.7024 2.6368-20.096-4.0448-27.52-8.832-6.656-4.3008-15.5392-10.5216-26.3424-18.5088-18.1248-13.3888-35.4048-27.0592-36.1216-27.6224a17.91232 17.91232 0 0 1-6.4256-17.7664l24.0128-113.1264c1.1264-5.248 4.5312-9.728 9.3184-12.2112a17.94048 17.94048 0 0 1 15.36-0.512c96.0768 41.7024 206.2848 84.5056 225.8432 84.5056h0.4096c17.9968-1.2288 30.72 3.5072 37.8368 14.08 11.4944 17.0752 2.0224 39.8336-7.7312 59.8272-14.208 29.1072-24.6528 57.8304-24.7552 58.112a18.0224 18.0224 0 0 1-16.8704 11.776z m-158.6944-34.7648s-0.0256 0.0256 0 0c-0.0256 0.0256 0 0 0 0z m-10.0352-30.848c6.4768 0 15.36 1.3056 28.5952 3.4048 14.5664 2.304 34.4832 5.7856 59.2384 10.3936 26.7776 4.992 53.5552 10.2144 69.5808 13.3888 4.6592-11.7504 11.9808-29.2864 20.736-47.2064 5.9136-12.1344 8.1152-18.8928 8.9344-22.5024-1.152-0.0512-2.6112-0.0256-4.4544 0.1024-7.168 0.4608-23.8848 1.6128-136.9856-43.392-33.536-13.3376-65.8432-26.88-85.7856-35.3536l-17.1776 80.8448c22.1952 17.2544 46.464 35.072 55.8592 40.3712 0.4608-0.0512 0.9472-0.0512 1.4592-0.0512z" fill="#474E54" p-id="3383"></path><path d="M663.11609 378.543101a159.232 83.3024 21.642 1 0 61.444852-154.860226 159.232 83.3024 21.642 1 0-61.444852 154.860226Z" fill="#E27F44" p-id="3384"></path><path d="M605.8496 348.5696l98.56-90.24-11.8016 133.12z" fill="#FFDD79" p-id="3385"></path><path d="M650.368 377.344l54.0416-119.0144-11.8016 133.12z" fill="#F4C95D" p-id="3386"></path><path d="M758.6816 416.2304c-31.8976 0-67.4048-7.2448-102.144-21.0176-92.3392-36.6336-148.2752-106.6752-127.3344-159.4368s109.6704-65.3824 202.0096-28.7488c42.1632 16.7424 78.6176 41.2928 102.6304 69.1712 26.7264 31.0272 35.4816 63.0784 24.704 90.2656-10.7776 27.1872-39.1424 44.4928-79.872 48.768-6.4768 0.6656-13.1584 0.9984-19.9936 0.9984z m-129.4848-194.432c-34.9696 0-60.0832 10.5728-66.6624 27.1872-11.4176 28.7488 29.824 82.176 107.2384 112.896 36.8896 14.6432 74.24 20.9152 105.1904 17.6896 26.4192-2.7648 44.7488-12.3648 50.2784-26.3424 5.5552-13.9776-1.2032-33.536-18.5344-53.6576-20.3008-23.5776-51.7888-44.5952-88.704-59.2384-32.64-12.928-63.3344-18.5344-88.8064-18.5344zM596.2496 912.768c-6.7584 0-13.2352-3.84-16.2816-10.3936l-57.856-124.8256a17.88928 17.88928 0 0 1 8.7296-23.7824c8.9856-4.1728 19.6352-0.256 23.7824 8.7296l57.856 124.8256c4.1728 8.9856 0.256 19.6352-8.7296 23.7824-2.4064 1.1264-4.992 1.664-7.5008 1.664z" fill="#474E54" p-id="3387"></path><path d="M395.776 679.936c-1.5872 1.28-46.2592 40.3456-29.8496 88.3456s89.6 90.7776 185.4464 64.0768c105.3184-29.3376 139.6224-114.5088 90.6752-188.3392s-183.3216-14.3616-246.272 35.9168z" fill="#F39734" p-id="3388"></path><path d="M493.4656 858.5728c-30.208 0-54.272-6.5792-71.4496-13.6704-36.1472-14.9248-62.7712-40.7552-73.0624-70.8352-20.736-60.6976 34.5344-107.264 35.6352-108.1344 44.2624-35.3536 135.68-83.9424 206.0544-72.8832 28.928 4.5312 51.2512 18.3552 66.3296 41.088 25.6 38.6048 31.744 81.2032 17.28 120.0128-16.7936 45.056-58.7264 78.976-118.0928 95.5136-23.0912 6.4-44.0576 8.9088-62.6944 8.9088z m-86.3232-164.7872c-1.8432 1.6128-36.5312 32.7424-24.2432 68.6848 12.3648 36.1728 72.9344 77.9008 163.6864 52.608 48-13.3632 81.4336-39.4752 94.1056-73.4976 10.3424-27.7504 5.5296-58.88-13.568-87.68-9.4208-14.1824-23.1424-22.528-42.0096-25.4976-52.1472-8.1664-130.56 27.5712-177.9712 65.3824z m-11.3664-13.8496z" fill="#474E54" p-id="3389"></path><path d="M531.6608 738.432c69.3248-22.3744 97.792-62.5408 108.672-96.8448-50.304-70.016-182.3232-11.3664-244.5568 38.3488-1.2288 0.9728-27.8272 24.2688-32.6656 56.7552 33.664 15.8464 88.8576 27.4688 168.5504 1.7408z" fill="#EAAC71" p-id="3390"></path><path d="M443.2896 771.4048c-38.016 0-67.2-8.8064-87.8336-18.5088a17.93536 17.93536 0 0 1-10.0864-18.8672c6.0672-40.6272 38.8864-67.84 39.2192-68.096 43.4944-34.7392 133.632-82.8672 203.7504-73.216 28.6976 3.9424 51.072 16.8704 66.56 38.4256 3.3024 4.608 4.2496 10.496 2.5344 15.872-11.2384 35.4048-41.2416 82.9696-120.2432 108.4672-35.7888 11.5456-67.0464 15.9232-93.9008 15.9232z m88.3712-32.9728z m-147.2-12.3392c30.464 10.7008 77.0304 16.1536 141.6704-4.7104 47.7952-15.4368 79.3088-41.0368 93.824-76.2112-9.1648-9.2672-21.1968-14.8224-36.5312-16.9472-52.0704-7.168-129.6384 28.3904-176.2816 65.5616-1.1008 0.9728-15.3856 14.0032-22.6816 32.3072z" fill="#474E54" p-id="3391"></path><path d="M419.84 540.9536s-125.7984 60.9792-66.6624 151.552c45.2352 69.2736 148.5824 10.624 187.1872-20.5312 38.6048-31.1808 70.1184-89.9072 37.7088-121.3952-32.4096-31.488-86.912-40.3968-158.2336-9.6256z" fill="#A96B42" p-id="3392"></path><path d="M414.7456 742.8352c-5.5808 0-11.0848-0.4096-16.4864-1.2544-25.4976-4.0192-45.7216-17.2288-60.0832-39.2704-17.8176-27.3152-22.9888-55.168-15.3088-82.7904 16.3072-58.7776 86.2208-93.2352 89.1904-94.6944 0.2304-0.1024 0.4608-0.2304 0.7168-0.3328 72.2688-31.2064 137.088-26.368 177.8176 13.2352 13.184 12.8256 19.6864 29.952 18.7904 49.5104-1.7152 37.3504-30.2336 76.4928-57.728 98.688-27.776 22.4-85.0176 56.9088-136.9088 56.9088z m12.6464-185.6c-4.5312 2.2784-58.5984 30.4384-70.0416 71.9616-4.8128 17.4848-1.28 34.9952 10.8288 53.5296 8.7296 13.3632 20.4032 21.0432 35.6864 23.4496 40.2944 6.3488 96.9728-25.2928 125.2608-48.128 24.7552-19.968 43.4432-50.4576 44.4416-72.448 0.4352-9.2672-2.176-16.512-7.9872-22.144-30.1824-29.3632-79.232-31.5648-138.1888-6.2208z" fill="#474E54" p-id="3393"></path><path d="M288.5888 481.92s-48.9984 110.1056-50.8928 128.0512 22.2464 26.7776 62.6432 19.4816c40.4224-7.296 102.9632-0.2304 127.744 12.1088s59.0592 23.8848 78.6432 4.7872c19.584-19.0976-0.7168-39.4752-0.256-60.2112 0.4608-20.7104 3.7376-48.4608 50.8416-87.8848s49.92-72.7808 36.2752-84.7872c-13.6448-12.0064-25.6-11.9296-49.7408-8.6016-24.1408 3.328-57.728 4.48-91.5456-16.7424-33.8432-21.1968-121.8304-6.0928-163.712 93.7984z" fill="#FFDD79" p-id="3394"></path><path d="M479.2064 674.304c-15.2576 0-34.6112-4.5312-59.0848-16.6912-20.5056-10.2144-79.488-17.2032-116.5824-10.496-23.5776 4.2496-55.3472 5.8624-73.0112-10.5216-8.0128-7.4496-11.776-17.5616-10.6496-28.4672 2.0224-19.2512 40.3968-106.6496 52.2496-133.2992 30.6432-72.8576 80.8192-98.176 108.0064-106.7776 30.6944-9.728 61.2352-7.8848 81.664 4.9408 29.1072 18.2528 57.8304 17.152 79.5904 14.1824 24.9856-3.4304 44.2112-4.5312 64.0256 12.9024 8.6784 7.6288 13.3632 19.0208 13.2096 32.0512-0.3072 24.9088-17.9968 53.2736-49.8176 79.9232-43.5712 36.48-44.0832 59.392-44.416 74.5472-0.1024 4.1216 1.6896 9.6 3.584 15.3856 4.5056 13.824 12.0576 36.9664-8.7296 57.2416-8.2176 7.9616-20.9152 15.0784-40.0384 15.0784z m-141.4912-65.6384c36.7872 0 77.3376 6.3744 98.3808 16.8448 27.904 13.9008 49.1008 16.8192 58.1376 7.9872 4.0448-3.9424 4.4032-5.9648-0.3072-20.48-2.6112-8.0128-5.5808-17.0752-5.3504-27.3152 0.64-28.2112 8.0128-59.9808 57.2416-101.2224 27.0592-22.656 36.864-42.1888 36.992-52.8896 0.0512-3.072-0.7424-4.4288-1.0496-4.7104-7.1936-6.3232-11.6224-7.5776-35.456-4.3008-25.6 3.5328-64.1792 5.3504-103.5264-19.3024-9.2416-5.8112-28.8512-8.3968-51.8144-1.1264-21.3248 6.7584-60.8 26.9824-85.8624 86.656-0.0512 0.128-0.1024 0.2304-0.1536 0.3584-21.9648 49.3568-46.464 108.6464-49.2544 121.6768 3.3792 1.9968 15.5648 5.632 41.472 0.9472 11.9552-2.1248 25.9584-3.1232 40.5504-3.1232z m-49.1264-126.7456z" fill="#474E54" p-id="3395"></path><path d="M337.048891 583.756525a97.5872 56.5504 3.48 1 0 6.865232-112.892248 97.5872 56.5504 3.48 1 0-6.865232 112.892248Z" fill="#EF7148" p-id="3396"></path><path d="M347.3408 602.0352c-3.7632 0-7.5776-0.1024-11.392-0.3584-64.64-3.9424-113.3056-39.6544-110.7712-81.3568 2.5344-41.6768 55.168-71.2448 119.808-67.328 64.64 3.9424 113.3056 39.6544 110.7712 81.3568-1.3312 21.7344-15.8208 40.576-40.8064 53.12-18.9696 9.5232-42.624 14.5664-67.6096 14.5664z m-13.6704-113.5104c-41.0112 0-71.7056 17.0496-72.7296 33.9968-1.1008 18.2016 31.6672 40.6272 77.184 43.392 22.5792 1.3824 44.7232-2.4576 60.7744-10.4704 12.9024-6.4768 20.5824-14.9504 21.0944-23.2448 1.1008-18.2016-31.6672-40.6272-77.184-43.392-3.0976-0.2048-6.144-0.2816-9.1392-0.2816z m104.192 44.7488z" fill="#474E54" p-id="3397"></path><path d="M468.038903 454.48064a55.4752 71.68 3.48 1 0 8.701969-143.095651 55.4752 71.68 3.48 1 0-8.701969 143.095651Z" fill="#E4B9D3" p-id="3398"></path><path d="M470.6048 472.5248c-1.2032 0-2.432-0.0256-3.6608-0.1024-40.3968-2.4576-70.8352-44.5696-67.8144-93.9008 1.408-23.0656 9.8304-44.4928 23.7056-60.3392 14.7968-16.896 34.816-25.856 54.9888-24.6528 40.3968 2.4576 70.8352 44.5696 67.8144 93.9008-1.408 23.0656-9.8304 44.4928-23.7056 60.3392-13.8752 15.8464-32.4096 24.7552-51.328 24.7552z m3.5328-143.2832c-8.6272 0-17.2032 4.4032-24.3456 12.544-8.5504 9.7536-13.9776 23.936-14.8992 38.8864-1.7664 29.0816 13.9008 54.7072 34.2272 55.9616 9.1392 0.5888 18.3296-3.8912 25.856-12.4928 8.5504-9.7536 13.9776-23.936 14.8992-38.8864 1.7664-29.0816-13.9008-54.7072-34.2272-55.936-0.4864-0.0512-0.9984-0.0768-1.5104-0.0768z" fill="#474E54" p-id="3399"></path><path d="M342.016 254.7968s44.1856-53.1712 70.8096-9.5232c30.9248-9.8304 47.1296 12.4416 36.3008 41.5744 25.1136 6.8352 34.4576 37.1968 10.1632 60.2112 15.5136 24.8832 14.2848 60.5696-35.8144 71.8336 8.7808 40.3712-6.8096 60.7232-42.0864 54.3232-7.3984 34.1248-41.3952 42.1632-70.1696 25.5232-22.3488 26.3168-59.5456 43.0336-76.4928 6.7072-39.7568 6.4512-54.272-34.8672-29.6192-81.792s136.9088-168.8576 136.9088-168.8576z" fill="#ABB636" p-id="3400"></path><path d="M263.5264 544.256c-2.1504 0-4.3264-0.128-6.5024-0.4352-9.5744-1.28-22.144-5.9392-32.1536-19.8656-16.1792-0.5376-30.0032-7.552-39.04-20.096-15.36-21.3504-14.0544-55.296 3.456-88.576 25.088-47.7184 131.6864-164.0448 139.2896-172.3392 4.2752-5.0432 30.9504-34.9184 61.4144-32.6912 8.4992 0.6144 19.8912 3.9424 30.2592 15.1296 15.2832-1.7408 28.8256 2.5344 38.2976 12.4672 9.3696 9.8304 13.2864 23.7568 11.4176 39.0656 9.8816 6.7584 16.9728 16.7168 19.9424 28.544 3.712 14.8224 0.3072 30.592-9.1648 44.1088 6.656 16.1536 7.1168 32.9728 0.9984 47.5648-4.7104 11.264-15.1296 25.4208-38.2208 34.3808 1.92 24.5248-5.8624 38.7328-13.4912 46.6432-6.5792 6.8096-17.8944 14.0032-36.2496 14.08-6.016 12.5184-15.7184 22.0928-28.2112 27.6224-15.0784 6.656-33.1008 6.7072-50.2272 0.4352-14.1312 13.0816-32.7424 23.9616-51.8144 23.9616zM234.752 487.5008c6.8608 0 13.2608 3.968 16.2304 10.3424 4.48 9.6256 9.088 10.24 10.8288 10.4704 9.2672 1.2288 24.2688-7.68 35.7632-21.1968a17.92768 17.92768 0 0 1 22.6304-3.9168c10.7776 6.2208 22.272 7.68 30.8224 3.9168 6.6304-2.944 10.9824-8.9088 12.8768-17.7152 2.048-9.4464 11.2128-15.5648 20.7104-13.8496 9.3952 1.7152 16.5632 0.8704 19.6096-2.2784 3.328-3.4304 5.5296-13.2864 1.7664-30.592-2.0992-9.6256 3.968-19.1232 13.568-21.2992 10.8544-2.432 24.6784-7.552 29.0816-18.048 3.0464-7.3216 1.3568-17.3312-4.5312-26.8032a17.93024 17.93024 0 0 1 2.8928-22.5024c6.7328-6.3744 9.7024-13.5936 8.1408-19.8144-1.2288-4.8896-5.12-8.576-10.7008-10.0864a17.99936 17.99936 0 0 1-11.2384-9.088 17.91232 17.91232 0 0 1-0.8704-14.4128c3.3536-9.0368 2.4832-15.6672 0.256-18.0224-2.1248-2.2272-7.7568-2.3296-14.336-0.256-7.8592 2.5088-16.4352-0.6912-20.736-7.7568-4.992-8.192-8.8832-8.4992-10.1376-8.576-9.344-0.7424-24.3712 11.6736-31.5904 20.2752l-0.5632 0.64c-1.1008 1.2032-110.9248 120.7296-134.1952 165.0432-12.3904 23.5776-11.8528 42.9568-6.0928 50.944 1.2032 1.664 4.864 6.7584 16.9472 4.8128 0.9472-0.1536 1.92-0.2304 2.8672-0.2304z m107.264-232.704z" fill="#474E54" p-id="3401"></path><path d="M312.832 227.4816c-41.8048 4.9152-78.0032 22.4-109.2864 64.64s-58.368 128.9216-13.4656 160.384 119.1936-17.7664 154.2912-61.3632 72.3712-105.1904 45.7728-140.3392c-26.5984-35.1232-77.312-23.3216-77.312-23.3216z" fill="#F39734" p-id="3402"></path><path d="M222.9248 480.2816c-15.36 0-30.0544-3.9168-43.136-13.0816-16.0256-11.2384-26.3936-28.6976-29.9264-50.5088-7.1936-44.2112 14.3104-101.4784 39.2704-135.1936 31.6416-42.7264 70.016-65.536 120.7552-71.68 8.8064-1.792 63.3856-10.9568 94.5408 30.208 33.8944 44.7744-6.3744 112.9984-46.1056 162.3808-30.0544 37.3248-86.0672 77.8496-135.3984 77.8752z m109.5936-236.7744c-9.0112 0-15.5648 1.408-15.7184 1.4336-0.5888 0.128-1.28 0.256-1.8944 0.3328-41.1904 4.8384-71.0912 22.5792-96.9728 57.4976-20.2752 27.3664-38.0416 75.3152-32.7168 108.1344 2.0224 12.3904 6.9632 21.1968 15.1296 26.9056 6.6048 4.6336 14.5152 6.6816 23.168 6.6816 34.5856 0 81.28-32.7936 106.88-64.6144 43.5456-54.1184 60.544-98.3296 45.44-118.272-11.3664-15.0272-30.0032-18.0992-43.3152-18.0992z m-19.6864-16.0256z" fill="#474E54" p-id="3403"></path><path d="M238.6688 345.1904a11.5968 11.5968 0 0 1-6.4256 3.4816l-10.1376 1.8432a11.69664 11.69664 0 0 1-13.6192-9.4208 11.69664 11.69664 0 0 1 9.4208-13.6192l10.1376-1.8432a11.69664 11.69664 0 0 1 13.6192 9.4208c0.6912 3.8144-0.5376 7.5264-2.9952 10.1376z" fill="#70E7D3" p-id="3404"></path><path d="M245.9648 428.8256c-1.536 1.6384-3.584 2.8672-5.9648 3.4048l-8.7552 1.9712c-6.3232 1.408-12.5696-2.56-14.0032-8.8576-1.408-6.3232 2.56-12.5952 8.8576-14.0032l8.7552-1.9712c6.3232-1.408 12.5696 2.56 14.0032 8.8576 0.896 3.9424-0.3072 7.8848-2.8928 10.5984z" fill="#67B8FA" p-id="3405"></path><path d="M223.5648 389.7088a11.5456 11.5456 0 0 1-5.8112 3.3536l-9.6512 2.304c-6.2976 1.5104-12.6208-2.3808-14.1056-8.6784-1.4848-6.2976 2.3808-12.6208 8.6784-14.1056l9.6512-2.304c6.2976-1.5104 12.6208 2.3808 14.1056 8.6784 0.9728 3.9936-0.2304 7.9872-2.8672 10.752z" fill="#F7F8F8" p-id="3406"></path><path d="M288.4096 406.8352c-2.048 2.176-4.9408 3.584-8.1664 3.6864l-12.032 0.3584a11.68896 11.68896 0 0 1-12.0576-11.3664 11.68896 11.68896 0 0 1 11.3664-12.0576l12.032-0.3584a11.68896 11.68896 0 0 1 12.0576 11.3664c0.0768 3.2256-1.152 6.1952-3.2 8.3712z" fill="#FFA869" p-id="3407"></path><path d="M272.0256 367.7952a11.70432 11.70432 0 0 1-13.5168 2.56 11.6992 11.6992 0 0 1-5.6064-15.5904l4.7872-10.1888a11.69152 11.69152 0 0 1 15.5904-5.6064 11.6992 11.6992 0 0 1 5.6064 15.5904l-4.7872 10.1888c-0.5632 1.152-1.2544 2.176-2.0736 3.0464z" fill="#FC697C" p-id="3408"></path><path d="M297.0368 319.7184c-1.9456 2.0736-4.6592 3.456-7.7312 3.6608l-8.32 0.5632c-6.4512 0.4352-12.032-4.4544-12.4672-10.9056a11.71712 11.71712 0 0 1 10.9056-12.4672l8.32-0.5632c6.4512-0.4352 12.032 4.4544 12.4672 10.9056 0.2304 3.3792-0.9984 6.528-3.1744 8.8064z" fill="#F7F8F8" p-id="3409"></path><path d="M319.0784 380.2368a11.7504 11.7504 0 0 1-6.8096 3.5584c-6.4 0.9472-12.3648-3.4816-13.312-9.8816l-1.5616-10.4448a11.72992 11.72992 0 0 1 9.8816-13.312c6.4-0.9472 12.3648 3.4816 13.312 9.8816l1.5616 10.4448c0.5376 3.6864-0.6912 7.2448-3.072 9.7536z" fill="#77C5E8" p-id="3410"></path><path d="M351.3088 330.2912a11.71712 11.71712 0 0 1-10.496 3.5328l-10.4704-1.7664a11.712 11.712 0 0 1 3.8912-23.0912l10.4704 1.7664c6.3744 1.0752 10.6752 7.1168 9.6 13.4912-0.384 2.3552-1.4592 4.4288-2.9952 6.0672z" fill="#F7F8F8" p-id="3411"></path><path d="M287.1808 286.08a11.7376 11.7376 0 0 1-8.448-5.0944 11.67872 11.67872 0 0 1 3.1488-16.256l7.8336-5.2992c5.3504-3.6352 12.6464-2.2016 16.256 3.1488 3.6352 5.3504 2.2272 12.6464-3.1488 16.256l-7.8336 5.2992c-2.3808 1.6128-5.1456 2.2272-7.808 1.9456z" fill="#E5504C" p-id="3412"></path><path d="M371.072 278.4256a11.70944 11.70944 0 0 1-10.4448 3.5328l-12.7232-2.0992a11.73248 11.73248 0 0 1-9.6768-13.4656 11.73248 11.73248 0 0 1 13.4656-9.6768l12.7232 2.0992c6.3744 1.0496 10.7264 7.0656 9.6768 13.4656-0.4096 2.3808-1.4848 4.5056-3.0208 6.144z" fill="#009F95" p-id="3413"></path><path d="M740.6336 365.1584c-2.048 2.176-4.9408 3.584-8.1664 3.6864l-12.032 0.3584a11.68896 11.68896 0 0 1-12.0576-11.3664 11.68896 11.68896 0 0 1 11.3664-12.0576l12.032-0.3584a11.68896 11.68896 0 0 1 12.0576 11.3664c0.0768 3.2256-1.152 6.1952-3.2 8.3712z" fill="#FFA869" p-id="3414"></path><path d="M644.224 257.9456c-2.048 2.176-4.9408 3.584-8.1664 3.6864l-12.032 0.3584a11.68896 11.68896 0 0 1-12.0576-11.3664 11.68896 11.68896 0 0 1 11.3664-12.0576l12.032-0.3584a11.68896 11.68896 0 0 1 12.0576 11.3664c0.0768 3.2256-1.152 6.1952-3.2 8.3712z" fill="#FFFFFF" p-id="3415"></path><path d="M631.3216 299.3664c-2.048 2.176-4.9408 3.584-8.1664 3.6864l-12.032 0.3584a11.68896 11.68896 0 0 1-12.0576-11.3664 11.68896 11.68896 0 0 1 11.3664-12.0576l12.032-0.3584a11.68896 11.68896 0 0 1 12.0576 11.3664c0.0768 3.2-1.152 6.1696-3.2 8.3712z" fill="#FC697C" p-id="3416"></path><path d="M738.2016 296.576c-1.9456 2.0736-4.6592 3.456-7.7312 3.6608l-8.32 0.5632c-6.4512 0.4352-12.032-4.4544-12.4672-10.9056a11.71712 11.71712 0 0 1 10.9056-12.4672l8.32-0.5632c6.4512-0.4352 12.032 4.4544 12.4672 10.9056 0.2304 3.3792-0.9984 6.528-3.1744 8.8064z" fill="#70E7D3" p-id="3417"></path><path d="M789.504 355.4048a11.7504 11.7504 0 0 1-6.8096 3.5584c-6.4 0.9472-12.3648-3.4816-13.312-9.8816l-1.5616-10.4448a11.70944 11.70944 0 0 1 9.8816-13.312c6.4-0.9472 12.3648 3.4816 13.312 9.8816l1.5616 10.4448c0.5632 3.6864-0.6912 7.2192-3.072 9.7536z" fill="#77C5E8" p-id="3418"></path><path d="M792.4736 307.1232a11.71712 11.71712 0 0 1-10.496 3.5328l-10.4704-1.7664a11.712 11.712 0 0 1 3.8912-23.0912l10.4704 1.7664c6.3744 1.0752 10.6752 7.1168 9.6 13.4912-0.384 2.3808-1.4848 4.4544-2.9952 6.0672z" fill="#F7F8F8" p-id="3419"></path></svg>