<svg viewBox="0 0 1024 1024" version="1.1" xmlns="http://www.w3.org/2000/svg">
  <path d="M512 128c-212.8 0-384 171.2-384 384s171.2 384 384 384 384-171.2 384-384-171.2-384-384-384zM512 832c-176 0-320-144-320-320s144-320 320-320 320 144 320 320-144 320-320 320z" fill="#FFD93D"/>
  <path d="M512 448c35.2 0 64 28.8 64 64s-28.8 64-64 64-64-28.8-64-64 28.8-64 64-64zM320 448c35.2 0 64 28.8 64 64s-28.8 64-64 64-64-28.8-64-64 28.8-64 64-64zM704 448c35.2 0 64 28.8 64 64s-28.8 64-64 64-64-28.8-64-64 28.8-64 64-64z" fill="#FF6B6B"/>
</svg> 