<?xml version="1.0" standalone="no"?><!DOCTYPE svg PUBLIC "-//W3C//DTD SVG 1.1//EN" "http://www.w3.org/Graphics/SVG/1.1/DTD/svg11.dtd"><svg t="1740570559240" class="icon" viewBox="0 0 1024 1024" version="1.1" xmlns="http://www.w3.org/2000/svg" p-id="2782" xmlns:xlink="http://www.w3.org/1999/xlink" width="200" height="200"><path d="M665.6 174.08c56.55552 0 102.4 45.84448 102.4 102.4h25.6a76.8 76.8 0 0 1 76.8 76.8v112.64a76.8 76.8 0 0 1-76.8 76.8H747.52c-1.82272 0-3.61472-0.16384-5.35552-0.4608-35.84 73.4208-105.7792 127.13984-189.19424 140.56448L552.96 765.00992l64.86016 50.08384a30.72 30.72 0 0 1 11.93984 24.32v5.38624a20.48 20.48 0 0 1-20.48 20.48h-194.56a20.48 20.48 0 0 1-20.48-20.48v-5.632a30.72 30.72 0 0 1 11.63264-24.064L471.04 763.392v-80.5888c-83.41504-13.4144-153.36448-67.1232-189.21472-140.544a32.59392 32.59392 0 0 1-3.5328 0.39936L276.48 542.72h-46.08a76.8 76.8 0 0 1-76.75904-74.31168L153.6 465.92v-112.64a76.8 76.8 0 0 1 74.31168-76.75904L230.4 276.48H256c0-56.55552 45.84448-102.4 102.4-102.4h307.2z m0 61.44H358.4a40.96 40.96 0 0 0-40.9088 38.912L317.44 276.48v153.6c0 107.44832 87.11168 194.56 194.56 194.56 106.2912 0 192.68608-85.248 194.52928-191.09888L706.56 430.08V276.48a40.96 40.96 0 0 0-38.912-40.9088L665.6 235.52z m128 102.4H778.24v143.36h15.36a15.36 15.36 0 0 0 15.28832-13.88544L808.96 465.92v-112.64a15.36 15.36 0 0 0-13.88544-15.28832L793.6 337.92zM245.76 337.92h-15.36l-1.47456 0.07168a15.36 15.36 0 0 0-13.824 13.81376L215.04 353.28v112.64l0.07168 1.47456a15.36 15.36 0 0 0 13.81376 13.824L230.4 481.28H245.76V337.92z m424.36608-12.9024a20.48 20.48 0 0 1 0 28.95872L576 448.1024a20.48 20.48 0 1 1-28.95872-28.95872l94.12608-94.12608a20.48 20.48 0 0 1 28.95872 0z m-62.6688-29.4912a20.48 20.48 0 0 1 0 28.9792l-50.688 50.688a20.48 20.48 0 1 1-28.9792-28.9792l50.688-50.688a20.48 20.48 0 0 1 28.9792 0z" fill="#FAB005" p-id="2783"></path></svg>