<?xml version="1.0" standalone="no"?><!DOCTYPE svg PUBLIC "-//W3C//DTD SVG 1.1//EN" "http://www.w3.org/Graphics/SVG/1.1/DTD/svg11.dtd"><svg t="1740122711042" class="icon" viewBox="0 0 1024 1024" version="1.1" xmlns="http://www.w3.org/2000/svg" p-id="1545" xmlns:xlink="http://www.w3.org/1999/xlink" width="200" height="200"><path d="M176.128 670.7968a343.552 103.3728 0 1 0 687.104 0 343.552 103.3728 0 1 0-687.104 0Z" fill="#FFA869" p-id="1546"></path><path d="M519.68 800.896c-93.5424 0-181.7088-11.4944-248.2944-32.384-74.0352-23.2192-113.1776-55.5008-113.1776-93.312 0-37.8112 39.1424-70.0672 113.1776-93.312 66.5856-20.8896 154.752-32.384 248.2944-32.384s181.7088 11.4944 248.2944 32.384c74.0352 23.2192 113.1776 55.5008 113.1776 93.312 0 37.8112-39.1424 70.0672-113.1776 93.312-66.5856 20.8896-154.752 32.384-248.2944 32.384z m0-215.552c-89.984 0-174.3616 10.9056-237.568 30.7456-64.9984 20.3776-88.064 44.5952-88.064 59.1104s23.0656 38.7072 88.064 59.1104c63.2064 19.84 147.5584 30.7456 237.568 30.7456s174.3616-10.9056 237.568-30.7456c64.9984-20.4032 88.064-44.5952 88.064-59.1104s-23.0656-38.7072-88.064-59.1104c-63.2064-19.8144-147.584-30.7456-237.568-30.7456z" fill="#474E54" p-id="1547"></path><path d="M314.0864 668.2368a205.5936 61.8496 0 1 0 411.1872 0 205.5936 61.8496 0 1 0-411.1872 0Z" fill="#FEF8E3" p-id="1548"></path><path d="M519.68 748.032c-107.648 0-223.5136-24.96-223.5136-79.7696s115.8656-79.7696 223.5136-79.7696 223.5136 24.96 223.5136 79.7696S627.328 748.032 519.68 748.032z m0-123.7248c-53.2224 0-103.0144 6.1696-140.2112 17.3568-39.0144 11.7248-47.4624 24.1408-47.4624 26.5728s8.448 14.848 47.4624 26.5728c37.1968 11.1872 86.9888 17.3568 140.2112 17.3568s103.0144-6.1696 140.2112-17.3568c39.0144-11.7504 47.4624-24.1408 47.4624-26.5728s-8.448-14.848-47.4624-26.5728c-37.1968-11.1872-86.9888-17.3568-140.2112-17.3568z" fill="#474E54" p-id="1549"></path><path d="M310.9888 327.6288a196.992 46.976 0 1 0 393.984 0 196.992 46.976 0 1 0-393.984 0Z" fill="#FEF8E3" p-id="1550"></path><path d="M507.9808 391.04c-51.3536 0-100.4288-4.6592-138.1888-13.0816a16.38656 16.38656 0 0 1-12.672-13.7216c-0.9472-6.7584 2.3808-13.4144 8.3712-16.6912 24.6784-13.4912 79.744-21.888 143.7184-21.888 63.0272 0 117.7344 8.192 142.7712 21.376a16.43776 16.43776 0 0 1 8.6272 16.6656 16.41472 16.41472 0 0 1-12.6208 13.8752c-38.0416 8.6784-87.7568 13.4656-140.0064 13.4656z" fill="#8D545A" p-id="1551"></path><path d="M507.9808 374.6304c-102.784 0-187.1616-18.7648-196.1728-42.7264h-0.8192l29.5424 228.9664c8.832 68.3776 67.0464 119.5776 136.0128 119.5776h68.2752c70.1952 0 129.0496-52.992 136.3968-122.8032l23.7312-225.7408h-0.8192c-8.9856 23.936-93.3632 42.7264-196.1472 42.7264z" fill="#FFDE77" p-id="1552"></path><path d="M704.9472 331.8784h-0.8192c-5.3248 14.1568-36.9408 26.496-83.0976 34.2272l-15.3856 147.6096s-3.7376 95.232-134.144 95.232c-130.432 0-129.4848-102.784-129.4848-102.784s-2.3552 6.6304-6.2464 17.6384l4.7872 37.0688c8.832 68.3776 67.0464 119.5776 136.0128 119.5776h68.2752c70.1952 0 129.0496-52.992 136.3968-122.8032l23.7056-225.7664z" fill="#FFA869" p-id="1553"></path><path d="M753.6896 361.856l-54.272 15.3344-4.096 48.1792 38.5536-12.288c21.3248-6.1696 28.8768 6.144 27.2128 25.4976-1.9712 23.1936-10.1888 51.5072-20.5312 70.3488-4.2496 7.3472-12.4416 30.8992-57.9328 35.328l-1.408 13.3632c-1.1008 10.368-3.3536 20.3776-6.5792 29.8752 67.2768-1.2544 96.3328-41.9584 102.8352-53.76 21.0432-38.3232 28.288-76.1856 31.5648-114.5344 2.7392-32.0256-29.6448-66.3296-55.3472-57.344z" fill="#FFA869" p-id="1554"></path><path d="M796.6464 355.2512c-15.2576-11.8528-32.8192-15.6672-48.2816-10.496l-27.5712 7.7824 1.9712-18.7648c0.128-1.28 0.128-2.56 0-3.84 0.0512-0.768 0.1024-1.5104 0.1024-2.304 0-26.1632-33.1776-41.7792-73.5744-51.0976l78.1824-84.864a17.89952 17.89952 0 0 0-1.0496-25.3184 17.89952 17.89952 0 0 0-25.3184 1.0496l-93.7216 101.7344c-45.6192-6.0416-89.5744-6.4-99.4048-6.4-21.9904 0-214.912 1.8176-214.912 64.896 0 0.7936 0.0512 1.5872 0.1024 2.3808-0.1536 1.3824-0.1536 2.7648 0.0256 4.1728l29.5424 228.9664c9.9584 77.0816 76.0576 135.2192 153.7792 135.2192h68.2752c63.5136 0 118.5024-38.016 142.3872-93.5936 71.3984-6.144 100.608-52.6592 105.9584-62.3872 24.4992-44.5952 30.8736-88.448 33.7152-121.6512 2.0736-23.9616-9.8048-49.664-30.208-65.4848z m-84.9152 83.712l27.3408-8.704c1.792-0.512 3.0976-0.7168 3.9936-0.7936 0.2816 1.4592 0.512 3.9424 0.2048 7.6288-1.7664 20.6848-9.2928 46.6176-18.304 63.1296-0.4352 0.7936-0.9216 1.6896-1.4592 2.7136-2.816 5.4016-7.0144 13.3376-20.4288 18.6624l8.6528-82.6368z m-26.5216-111.3344c-2.304 1.8688-5.9392 3.9168-10.8032 6.016-0.1024 0.0512-0.2048 0.0768-0.3072 0.128-0.896 0.384-1.8176 0.7424-2.7904 1.1264-0.1792 0.0768-0.384 0.1536-0.5632 0.2304-0.896 0.3584-1.8432 0.6912-2.816 1.0496-0.256 0.1024-0.512 0.1792-0.7936 0.2816-0.9472 0.3328-1.8944 0.6656-2.8928 0.9984-0.3072 0.1024-0.64 0.2048-0.9728 0.3072-0.9728 0.3328-1.9968 0.64-3.0208 0.9728-0.3584 0.1024-0.7168 0.2304-1.1008 0.3328-1.0496 0.3072-2.0992 0.64-3.2 0.9472-0.4096 0.1024-0.7936 0.2304-1.2032 0.3328-1.1008 0.3072-2.2272 0.6144-3.3792 0.9216-0.4352 0.128-0.8704 0.2304-1.3056 0.3584-1.1776 0.3072-2.3808 0.6144-3.6096 0.9216-0.4352 0.1024-0.8704 0.2304-1.3312 0.3328-1.28 0.3072-2.5856 0.6144-3.9168 0.9216-0.4352 0.1024-0.8448 0.2048-1.3056 0.3072-1.4336 0.3328-2.944 0.64-4.4288 0.9728l-1.0496 0.2304c-1.792 0.384-3.6096 0.7424-5.4784 1.1008-0.1024 0.0256-0.1792 0.0256-0.2816 0.0512-3.9936 0.768-8.1664 1.536-12.544 2.2528-0.2816 0.0512-0.5632 0.0768-0.8448 0.128-1.8688 0.3072-3.7376 0.5888-5.6576 0.896-0.6144 0.1024-1.2544 0.1792-1.8944 0.2816-1.6128 0.2304-3.2256 0.4608-4.8896 0.6912l-2.4064 0.3072c-1.536 0.2048-3.0464 0.4096-4.608 0.5888-0.9216 0.1024-1.8432 0.2304-2.7648 0.3328-1.4848 0.1792-2.9952 0.3584-4.5056 0.512-0.9984 0.1024-2.0224 0.2304-3.0464 0.3328l-4.48 0.4608c-0.8704 0.0768-1.7664 0.1792-2.6624 0.256l42.4704-46.08c34.3808 5.9904 56.6528 13.952 64.384 20.1984z m-107.8272-25.9584l-50.4832 54.8096h-0.1536c-2.0224 0.0512-4.0704 0.0768-6.144 0.1024-1.0496 0.0256-2.0992 0.0512-3.1488 0.0512-3.1232 0.0256-6.2976 0.0512-9.4976 0.0512s-6.3744-0.0256-9.4976-0.0512c-1.0752 0-2.0992-0.0256-3.1488-0.0512-2.048-0.0256-4.1216-0.0512-6.144-0.1024-1.2032-0.0256-2.3808-0.0768-3.584-0.1024l-5.504-0.1536-3.6608-0.1536c-1.7408-0.0768-3.4816-0.128-5.1968-0.2048-1.2288-0.0512-2.432-0.128-3.6608-0.1792-1.664-0.0768-3.328-0.1792-4.9664-0.256l-3.5584-0.2304c-1.6384-0.1024-3.2512-0.2048-4.864-0.3328-1.152-0.0768-2.2784-0.1536-3.4304-0.256l-4.7616-0.384c-1.1008-0.1024-2.2016-0.1792-3.2768-0.2816-1.5872-0.128-3.1488-0.2816-4.6848-0.4352l-3.0976-0.3072c-1.5616-0.1536-3.1232-0.3072-4.6592-0.4864l-2.8672-0.3072a1269.7472 1269.7472 0 0 1-7.2704-0.8448c-1.6384-0.2048-3.2512-0.4096-4.864-0.64-0.7168-0.1024-1.4336-0.1792-2.1504-0.2816-1.792-0.256-3.5328-0.512-5.2736-0.768-0.4864-0.0768-0.9984-0.1536-1.4848-0.2048-2.1504-0.3328-4.2496-0.64-6.2976-0.9984-0.0768 0-0.1536-0.0256-0.2304-0.0256-6.5536-1.0752-12.6976-2.2272-18.4064-3.4304-0.2048-0.0512-0.4096-0.1024-0.64-0.128-1.664-0.3584-3.2768-0.6912-4.864-1.0496-0.3328-0.0768-0.64-0.1536-0.9472-0.2304-1.4592-0.3328-2.8672-0.6656-4.2752-0.9984-0.3584-0.0768-0.7168-0.1792-1.0752-0.256-1.3056-0.3328-2.6112-0.6656-3.8656-0.9728-0.3584-0.1024-0.7168-0.1792-1.0752-0.2816-1.2288-0.3328-2.432-0.6656-3.6096-0.9984-0.3328-0.1024-0.6656-0.1792-0.9984-0.2816-1.152-0.3328-2.304-0.6656-3.4048-0.9984-0.3072-0.1024-0.6144-0.1792-0.9216-0.2816-1.1008-0.3328-2.176-0.6912-3.2256-1.024-0.256-0.0768-0.5376-0.1792-0.7936-0.256l-3.072-1.0496-0.6144-0.2304c-1.0496-0.384-2.0224-0.7424-2.9952-1.1264-0.128-0.0512-0.2816-0.1024-0.4096-0.1536-1.024-0.4096-2.0224-0.7936-2.944-1.2032-0.0512-0.0256-0.1024-0.0512-0.1536-0.0512-4.8896-2.0992-8.5248-4.1472-10.8544-6.016 14.3104-11.5712 78.4384-29.056 177.2288-29.056 25.6256 0 48.8448 1.1776 69.4784 3.0976z m-32.5376 360.832h-68.2752c-59.7504 0-110.592-44.6976-118.2464-103.9616l-24.4736-189.6192c11.6224 4.5568 24.9856 8.2176 39.04 11.1872l1.1264 0.2304c3.8656 0.7936 7.7568 1.5616 11.6992 2.2528l2.9952 0.5376c0.8704 0.1536 1.7664 0.3072 2.6368 0.4352 1.6384 0.2816 3.2768 0.5376 4.9408 0.7936 0.3072 0.0512 0.6144 0.1024 0.9472 0.1536 1.9968 0.3072 3.9936 0.5888 5.9904 0.8704 0.4096 0.0512 0.8192 0.128 1.2288 0.1792 42.6496 5.9648 84.6848 6.8352 99.7376 6.9376H509.8752c4.5824-0.0256 12.9792-0.1024 23.8592-0.4864 0.4096 0.0256 0.8192 0.0512 1.2288 0.0512 0.8448 0 1.664-0.0768 2.5088-0.2048 18.5344-0.7424 43.2128-2.2784 68.5312-5.5808 0.1536-0.0256 0.3072-0.0512 0.4608-0.0512 1.9712-0.256 3.968-0.5376 5.9392-0.8192 0.2816-0.0512 0.5888-0.0768 0.8704-0.128 2.0224-0.2816 4.0704-0.5888 6.0928-0.896 0.5632-0.0768 1.1008-0.1792 1.664-0.256 1.3824-0.2304 2.7648-0.4352 4.1472-0.6656 0.8448-0.1536 1.7152-0.2816 2.56-0.4352 1.1264-0.2048 2.2528-0.384 3.3792-0.5888 1.7664-0.3072 3.5072-0.64 5.248-0.9728 0.6656-0.128 1.3056-0.256 1.9456-0.384 1.3056-0.256 2.5856-0.512 3.8656-0.7936l1.0752-0.2304c14.3872-3.0464 28.032-6.8096 39.8336-11.52l-0.1792 1.7152c-0.7168 1.6896-1.1776 3.5072-1.3312 5.4016l-3.2768 38.4256-13.7728 130.944-1.1264 10.7264c-0.2304 2.0992-0.512 4.224-0.8448 6.3232-0.0512 0.3584-0.128 0.7168-0.1792 1.0752-0.3072 1.8432-0.64 3.6608-1.0496 5.4784l-0.1536 0.64c-0.9472 4.224-2.0992 8.3968-3.5072 12.4928-0.0512 0.1536-0.0768 0.3072-0.128 0.4352a118.87872 118.87872 0 0 1-112.6912 80.3072z m246.3488-244.8384c-2.688 31.5392-8.2944 68.9664-29.4144 107.4432-2.0992 3.8144-19.5072 33.1264-63.6928 41.984 0.2304-1.4592 0.384-2.944 0.5888-4.4032 0.128-0.9216 0.256-1.8432 0.3584-2.7904 39.3728-8.2176 51.3792-31.1552 56.2176-40.3712 0.3328-0.6144 0.6144-1.1776 0.8704-1.6128 0.0768-0.1024 0.128-0.2304 0.2048-0.3328 11.5456-21.0688 20.4544-51.456 22.6816-77.4656 1.8688-21.9648-5.9904-33.3568-12.9024-39.04-6.5536-5.376-18.304-10.6496-37.1456-5.1968l-0.4608 0.1536-12.6208 4.0192 0.9472-9.1136 41.8048-11.8016c0.3584-0.1024 0.6912-0.2048 1.0496-0.3328 3.84-1.3568 9.472 0.4352 15.0784 4.7872 10.4704 8.1408 17.408 22.5024 16.4352 34.0736z" fill="#474E54" p-id="1555"></path><path d="M517.4016 973.9008c-256.5376 0-465.2544-208.7168-465.2544-465.2544S260.864 43.392 517.4016 43.392s465.2544 208.7168 465.2544 465.2544-208.7168 465.2544-465.2544 465.2544z m0-894.6688c-236.7744 0-429.4144 192.64-429.4144 429.4144s192.64 429.4144 429.4144 429.4144 429.4144-192.64 429.4144-429.4144S754.176 79.232 517.4016 79.232z" fill="#474E54" p-id="1556"></path><path d="M486.016 463.2576c-57.7536 0-90.3424-10.8544-92.1088-11.4688a15.34464 15.34464 0 0 1-9.5488-19.5072 15.35488 15.35488 0 0 1 19.456-9.5744c0.6912 0.2304 51.7376 16.8192 139.264 6.2976a15.3344 15.3344 0 0 1 17.0752 13.4144 15.3344 15.3344 0 0 1-13.4144 17.0752c-22.528 2.7136-42.8288 3.7632-60.7232 3.7632z" fill="#F7F8F8" p-id="1557"></path></svg>