<svg viewBox="0 0 1024 1024" version="1.1" xmlns="http://www.w3.org/2000/svg">
  <path d="M512 512c123.776 0 224-100.224 224-224S635.776 64 512 64 288 164.224 288 288s100.224 224 224 224z m0-384c88.224 0 160 71.776 160 160s-71.776 160-160 160-160-71.776-160-160 71.776-160 160-160zM704 576H320c-159.072 0-288 128.928-288 288 0 35.392 28.608 64 64 64h832c35.392 0 64-28.608 64-64 0-159.072-128.928-288-288-288z m224 288H96c0-123.712 100.288-224 224-224h384c123.712 0 224 100.288 224 224z" fill="#FF6B6B"/>
</svg> 